<svg width="19" height="19" viewBox="0 0 19 19" fill="none" xmlns="http://www.w3.org/2000/svg">
<path d="M8.8379 0C9.28426 0 9.73062 0 10.172 0C10.4696 0.0396763 10.7721 0.0694336 11.0697 0.123989C13.1725 0.490995 14.9778 1.42835 16.426 2.99556C18.4743 5.20256 19.2926 7.83111 18.9206 10.8118C18.7024 12.5328 18.0428 14.095 16.9319 15.4291C14.6554 18.1767 11.7194 19.3323 8.18324 18.9157C6.60115 18.7272 5.16288 18.1271 3.88828 17.1749C1.86975 15.6672 0.614983 13.6784 0.148786 11.1986C0.0843122 10.8614 0.0495954 10.5142 0 10.177C0 9.73062 0 9.28426 0 8.84286C0.0297572 8.62464 0.0545549 8.40146 0.0843122 8.18324C0.312451 6.61603 0.877839 5.17776 1.82511 3.90812C3.33281 1.87471 5.32655 0.614983 7.81128 0.148786C8.15348 0.0892717 8.49569 0.0495954 8.8379 0ZM9.49752 1.33412C4.99426 1.33412 1.33412 4.9893 1.32916 9.49256C1.3242 14.0057 4.98434 17.6708 9.49256 17.6758C14.0057 17.6808 17.6708 14.0157 17.6708 9.50744C17.6758 4.99426 14.0107 1.32916 9.49752 1.33412Z" fill="#4C4040"/>
<path d="M9.35371 4.72644C9.91413 4.74132 10.4002 4.82067 10.8564 5.03393C11.9872 5.56956 12.3691 6.72514 11.7789 7.82615C11.5111 8.32707 11.1193 8.71887 10.6779 9.06604C10.3754 9.3041 10.0877 9.56695 10.0084 9.96867C9.96869 10.177 9.96373 10.4002 9.95381 10.6134C9.94389 10.906 9.81494 11.0796 9.52729 11.1292C9.35867 11.159 9.18012 11.1639 9.0115 11.1441C8.7288 11.1094 8.58498 10.9705 8.55026 10.6928C8.44115 9.78517 8.65441 8.98669 9.39834 8.38658C9.6116 8.21796 9.82486 8.04933 10.0282 7.87079C10.2266 7.6972 10.3803 7.4889 10.4448 7.22605C10.549 6.79457 10.3704 6.43748 9.95877 6.26886C9.29419 5.99112 8.60978 6.1895 8.19813 6.77473C7.95016 7.12686 7.72202 7.20125 7.35997 7.05742C7.02768 6.92352 6.86898 6.62098 6.93841 6.24406C7.04752 5.67371 7.42941 5.31663 7.91544 5.05377C8.38164 4.80579 8.89247 4.7314 9.35371 4.72644Z" fill="#4C4040"/>
<path d="M8.27246 12.984C8.27246 12.4484 8.68906 12.0269 9.21973 12.0269C9.75536 12.0269 10.1868 12.4583 10.1868 12.989C10.1868 13.5147 9.74048 13.9561 9.21477 13.9512C8.69402 13.9512 8.27246 13.5147 8.27246 12.984Z" fill="#4C4040"/>
</svg>
