<svg width="27" height="28" viewBox="0 0 27 28" fill="none" xmlns="http://www.w3.org/2000/svg">
<path d="M8.16298 14.5681H3.71866C3.2461 14.5681 2.85229 14.1912 2.85229 13.7145C2.85229 13.2489 3.2461 12.8609 3.71866 12.8609H8.16298L8.16332 7.56197C8.16332 4.84595 10.4529 2.62878 13.2575 2.62878H18.844C21.6373 2.62878 23.9153 4.84595 23.9153 7.55089V19.8783C23.9153 22.5943 21.6373 24.8004 18.8211 24.8004H13.2461C10.4529 24.8004 8.16332 22.5943 8.16332 19.8894L8.16298 14.5681L15.2609 14.5682L13.4293 16.3419C13.0858 16.6745 13.0858 17.2177 13.4293 17.5503C13.601 17.7166 13.8299 17.7942 14.0589 17.7942C14.2764 17.7942 14.5053 17.7166 14.6771 17.5503L18.0198 14.3243C18.1915 14.1691 18.2831 13.9474 18.2831 13.7146C18.2831 13.4929 18.1915 13.2712 18.0198 13.116L14.6771 9.88999C14.3336 9.55742 13.7727 9.55742 13.4293 9.88999C13.0858 10.2226 13.0858 10.7658 13.4293 11.0983L15.2609 12.861L8.16298 12.8609V14.5681Z" fill="white"/>
</svg>
