<svg width="86" height="113" viewBox="0 0 86 113" fill="none" xmlns="http://www.w3.org/2000/svg">
<g clip-path="url(#clip0_6_2479)">
<mask id="mask0_6_2479" style="mask-type:luminance" maskUnits="userSpaceOnUse" x="33" y="-1" width="50" height="98">
<path d="M47.2683 18.4981C56.1354 19.4587 64.4056 23.4285 70.7011 29.7462C86.001 45.045 86.001 69.8496 70.7011 85.1485L59.4071 96.4426C45.453 84.7922 36.4554 68.2684 34.2408 50.2256L34.2271 50.11L34.183 49.7376C34.1664 49.5975 34.1497 49.4584 34.135 49.3183L34.089 48.891L34.0498 48.5069C34.036 48.3707 34.0233 48.2355 34.0106 48.0993L33.9724 47.6838L33.939 47.2919L33.9057 46.8833L33.8773 46.4815L33.8469 46.0592L33.8234 45.6613L33.7999 45.2576L33.7813 44.8363L33.7617 44.4228L33.747 44.0426L33.7313 43.6105L33.7205 43.2293L33.7107 42.7815L33.7048 42.4219L33.699 41.9692V41.5988V41.1539V40.7796C33.699 40.6316 33.699 40.4856 33.699 40.3367L33.7048 39.9761C33.7048 39.8164 33.7117 39.6567 33.7156 39.496L33.7245 39.1804L33.7411 38.6817L33.7558 38.3387L33.7754 37.8909L33.7832 37.7234C34.4652 24.163 38.9955 11.0773 46.844 -0.00196075C43.6912 12.3985 43.5481 25.373 46.4266 37.84L46.5305 38.2848L46.5658 38.4318C46.6396 38.7369 46.7144 39.0413 46.7901 39.3451L46.8352 39.5263L46.9401 39.9349L47.0047 40.1828L47.1253 40.6356L47.1615 40.7678C47.3013 41.2852 47.4467 41.8019 47.5976 42.318L47.6466 42.4856L47.7828 42.9441L47.8386 43.1293C47.9908 43.6284 48.1476 44.1262 48.309 44.6227L48.3648 44.7951L48.5079 45.2263L48.5853 45.4575L48.7323 45.8916C48.7976 46.0837 48.8629 46.2751 48.9282 46.4658L49.0713 46.8676L49.1458 47.0753L49.3035 47.5065L49.3829 47.722L49.5436 48.1542L49.622 48.358C49.7161 48.6049 49.8114 48.8515 49.9081 49.0978L50.0012 49.3379L50.1756 49.7729L50.253 49.964C53.5633 58.1265 58.1947 65.6884 63.9615 72.3464C71.1225 62.3016 70.1965 48.2708 61.1826 39.2569C57.6529 35.7152 53.1631 33.2851 48.2678 32.2664C47.5247 27.7159 47.1893 23.1082 47.2654 18.4981" fill="white"/>
</mask>
<g mask="url(#mask0_6_2479)">
<path d="M86.001 0H33.6941V96.4386H86.001V0Z" fill="#1985B5"/>
</g>
<mask id="mask1_6_2479" style="mask-type:luminance" maskUnits="userSpaceOnUse" x="34" y="4" width="40" height="60">
<path d="M73.2058 33.9018C72.236 32.6603 71.1911 31.4793 70.077 30.3654C64.1594 24.4285 56.4497 20.6077 48.1415 19.4947C48.127 23.5252 48.4304 27.5506 49.0488 31.5335C52.7226 32.3934 56.1717 34.0241 59.1678 36.3174C62.1639 38.6108 64.6386 41.5145 66.428 44.8363C69.1212 41.478 71.3971 37.8054 73.2058 33.8989M44.9392 4.50254C38.7934 14.5434 35.1963 25.9354 34.6672 37.7665L34.6397 38.3779L34.626 38.715L34.6093 39.2049L34.6005 39.5205C34.6005 39.6772 34.5927 39.834 34.5897 39.9918L34.5839 40.3514C34.5839 40.4954 34.5839 40.6395 34.5839 40.7835V41.152V41.5929V41.9564L34.5897 42.4072V42.7589L34.6005 43.2038L34.6113 43.5781L34.626 44.0073L34.6407 44.3797L34.6593 44.7922L34.6799 45.1988L34.7034 45.6016L34.7269 45.9935L34.7563 46.4119L34.7847 46.8039L34.8181 47.2105L34.8504 47.5966L34.8886 48.0121C34.9014 48.1453 34.9131 48.2776 34.9268 48.4099L34.966 48.7921L35.0121 49.2183C35.0258 49.3555 35.0425 49.4917 35.0591 49.6279L35.1022 49.9934L35.1169 50.109C35.6754 54.5395 36.6441 58.9086 38.0105 63.16C43.1313 61.8624 48.0289 59.805 52.5401 57.0564C51.4054 54.8575 50.373 52.6067 49.4427 50.304L49.189 49.6691L49.091 49.43C48.993 49.1811 48.895 48.9319 48.797 48.6823L48.7167 48.4726L48.555 48.0385L48.4736 47.819L48.3227 47.384L48.1052 46.7735C48.0366 46.5775 47.971 46.3874 47.9034 46.1944L47.7515 45.7456L47.6721 45.5104L47.5281 45.0744L47.4722 44.9019C47.3082 44.4002 47.1498 43.8969 46.997 43.392L46.9401 43.2028L46.802 42.7403L46.753 42.5718C46.6001 42.0492 46.4531 41.5266 46.312 41.004L46.2748 40.8668L46.1533 40.4112L46.0886 40.1603L45.9818 39.7458L45.9358 39.5645C45.8593 39.2569 45.7839 38.9502 45.7104 38.6415L45.6741 38.4906L45.5703 38.0448C43.0114 27.0318 42.7964 15.6039 44.9392 4.50254Z" fill="white"/>
</mask>
<g mask="url(#mask1_6_2479)">
<path d="M73.2058 4.50254H34.577V63.1561H73.2058V4.50254Z" fill="#1985B5"/>
</g>
<mask id="mask2_6_2479" style="mask-type:luminance" maskUnits="userSpaceOnUse" x="3" y="11" width="55" height="102">
<path d="M57.3601 98.4846L43 112.845L15.2988 85.1436C-3.33786e-06 69.8447 -3.33786e-06 45.0401 15.2988 29.7413C17.5332 27.5038 20.0297 25.5446 22.7342 23.9061C18.4281 31.0542 16.0474 39.196 15.8241 47.538C15.6009 55.8799 17.5427 64.1374 21.4603 71.5056C18.4794 63.183 17.5376 54.2668 18.714 45.505C19.8904 36.7432 23.1507 28.3913 28.2215 21.1497C29.7765 19.3379 33.4952 15.0421 37.0531 11.4548C33.3996 19.7124 31.3139 28.5776 30.9024 37.5979L30.874 38.226L30.8593 38.5876L30.8417 39.1011L30.8329 39.4166C30.8329 39.5871 30.825 39.7576 30.8221 39.9291L30.8152 40.2887C30.8152 40.4474 30.8152 40.6062 30.8152 40.7649V41.1569V41.6145V42.0064L30.8211 42.4689L30.8279 42.8511L30.8387 43.3106L30.8495 43.7134L30.8652 44.1572L30.8809 44.558L30.9005 44.9823L30.923 45.4213L30.9465 45.8338L30.972 46.2552L31.0024 46.6873L31.0337 47.1116L31.067 47.529L31.1023 47.9464L31.1356 48.3639C31.1494 48.5099 31.1631 48.6578 31.1778 48.8028L31.2189 49.1948L31.264 49.622C31.2807 49.7719 31.2983 49.9219 31.3159 50.0728L31.363 50.4647L31.3777 50.5794C33.1473 64.5671 38.7522 77.7935 47.7015 88.7015C50.6144 92.249 53.8468 95.5215 57.3582 98.4778" fill="white"/>
</mask>
<g mask="url(#mask2_6_2479)">
<path d="M57.3601 11.4548H0V112.845H57.3601V11.4548Z" fill="#EC1C24"/>
</g>
<mask id="mask3_6_2479" style="mask-type:luminance" maskUnits="userSpaceOnUse" x="4" y="15" width="31" height="50">
<path d="M17.4076 64.2536C13.3196 51.8522 14.323 38.3351 20.1973 26.6733C18.6844 27.7982 17.2559 29.0322 15.923 30.3654C7.5735 38.715 3.88817 49.963 4.86217 60.87C8.88798 62.5092 13.1006 63.6457 17.4046 64.2536M34.5113 15.3909C32.6025 17.4487 30.7447 19.5682 28.926 21.6916C24.6122 27.8619 21.6261 34.8605 20.1568 42.2444C18.6876 49.6284 18.7671 57.237 20.3903 64.5887C21.8827 64.7141 23.3917 64.7847 24.9164 64.7847C27.7718 64.7836 30.6225 64.5543 33.4413 64.0987C32.067 59.7272 31.0868 55.2414 30.5125 50.695L30.4968 50.5725L30.4507 50.1805C30.4321 50.0277 30.4135 49.8739 30.3968 49.72L30.3517 49.2908L30.3106 48.8989C30.2949 48.749 30.2812 48.599 30.2675 48.4491L30.2283 48.0268L30.193 47.6064L30.1587 47.1821L30.1274 46.7549L30.097 46.3149L30.0715 45.8916L30.047 45.4713L30.0245 45.0293L30.0049 44.5992L29.9882 44.1945L29.9725 43.7437L29.9618 43.3371L29.95 42.8716L29.9441 42.4865L29.9382 42.0172V41.6252V41.1627V40.7708C29.9382 40.6081 29.9382 40.4464 29.9441 40.2808L29.95 39.9212C29.95 39.7468 29.9559 39.5724 29.9618 39.3989L29.9706 39.0785L29.9882 38.5602L30.0029 38.1937L30.0313 37.5666C30.3724 29.9879 31.8836 22.5076 34.5113 15.3909Z" fill="white"/>
</mask>
<g mask="url(#mask3_6_2479)">
<path d="M34.5113 15.3909H3.88818V64.7827H34.5113V15.3909Z" fill="#EC1C24"/>
</g>
</g>
<defs>
<clipPath id="clip0_6_2479">
<rect width="86" height="112.845" fill="white"/>
</clipPath>
</defs>
</svg>
