<svg width="21" height="21" viewBox="0 0 21 21" fill="none" xmlns="http://www.w3.org/2000/svg">
<path d="M10.218 14.2872C12.2546 14.2872 13.9056 12.5915 13.9056 10.4999C13.9056 8.4083 12.2546 6.71271 10.218 6.71271C8.18151 6.71271 6.53052 8.4083 6.53052 10.4999C6.53052 12.5915 8.18151 14.2872 10.218 14.2872Z" stroke="black" stroke-width="1.5" stroke-linecap="square"/>
<path d="M17.0216 17.3971L16.5837 14.2746L19.4355 13.103V7.89717L16.5847 6.7259L17.0227 3.60292L12.6329 1L10.2184 2.95114L7.80387 1L3.41413 3.60292L3.85204 6.72538L1 7.89717V13.103L3.85304 14.2752L3.41521 17.3971L7.80495 20L10.2184 18.0498L12.6319 20L17.0216 17.3971Z" stroke="black" stroke-width="1.5" stroke-linecap="square"/>
</svg>
